<?xml version="1.0" encoding="utf-8"?>
<!-- Generator: Adobe Illustrator 19.0.0, SVG Export Plug-In . SVG Version: 6.00 Build 0)  -->
<svg version="1.1" id="Layer_1" xmlns="http://www.w3.org/2000/svg" xmlns:xlink="http://www.w3.org/1999/xlink" x="0px" y="0px"
	 viewBox="0 0 857.5 374" style="enable-background:new 0 0 857.5 374;" xml:space="preserve">
<style type="text/css">
	.st0{fill:#FFFFFF;}
</style>
<g id="XMLID_77_">
	<path id="XMLID_78_" class="st0" d="M54.8,59.5h28.6v80.4h0.8l31.4-39.4h32l-34.8,40.8l37.4,58.4h-31.8L96,161.1l-12.6,14.2v24.4
		H54.8V59.5z"/>
	<path id="XMLID_80_" class="st0" d="M191.8,98.1c28.2,0,42.2,20.6,42.2,47.6c0,5.2-0.6,10-1.2,12.4h-59.4
		c2.6,15,12.6,21.6,25.8,21.6c7.4,0,14.2-2.2,21.4-6.6l9.8,17.8c-10.2,7-23.4,11.2-35.2,11.2c-28.4,0-50.2-19.2-50.2-52
		C145,117.9,168,98.1,191.8,98.1z M209,139.9c0-11.4-4.8-19.4-16.6-19.4c-9.2,0-17.2,6.2-19.2,19.4H209z"/>
	<path id="XMLID_83_" class="st0" d="M254,215.3c9.8,0,14.8-5.2,17.4-13l1.4-5.2l-38.2-96.6h29.6l14.2,42.6c2.8,9,5.2,18.4,7.8,28.2
		h0.8c2.2-9.4,4.4-18.8,6.8-28.2l12-42.6H334l-34.4,100.2c-9.4,25-20,37.8-43.4,37.8c-6,0-10-0.8-14-2l5.2-22.4
		C249.2,214.5,251.8,215.3,254,215.3z"/>
	<path id="XMLID_85_" class="st0" d="M341.4,100.5h24l2,12.8h0.8c8.2-8.2,17-15.2,30-15.2c14,0,22.4,6,27.4,16.6
		c8.8-9,18-16.6,31.2-16.6c21.4,0,31,15.2,31,40v61.6h-29.4v-57.8c0-14.4-3.8-18.8-12.2-18.8c-5,0-10.6,3.2-17,9.6v67h-29.4v-57.8
		c0-14.4-3.8-18.8-12.2-18.8c-4.8,0-10.6,3.2-16.8,9.6v67h-29.4V100.5z"/>
	<path id="XMLID_87_" class="st0" d="M545.8,98.1c28.2,0,42.2,20.6,42.2,47.6c0,5.2-0.6,10-1.2,12.4h-59.4
		c2.6,15,12.6,21.6,25.8,21.6c7.4,0,14.2-2.2,21.4-6.6l9.8,17.8c-10.2,7-23.4,11.2-35.2,11.2c-28.4,0-50.2-19.2-50.2-52
		C499,117.9,522,98.1,545.8,98.1z M563,139.9c0-11.4-4.8-19.4-16.6-19.4c-9.2,0-17.2,6.2-19.2,19.4H563z"/>
	<path id="XMLID_90_" class="st0" d="M599.4,100.5h29.4v57.8c0,14.2,3.8,18.8,12.4,18.8c7.4,0,11.8-3.2,17.6-11v-65.6h29.4v99.2h-24
		l-2.2-13.8h-0.6c-8.4,10-17.6,16.2-31.2,16.2c-21.6,0-30.8-15.2-30.8-40V100.5z"/>
	<path id="XMLID_92_" class="st0" d="M735.4,207.5v29H706v-136h24l2,9.8h0.8c7.8-7,17.8-12.2,28.2-12.2c24,0,38.8,19.8,38.8,50.4
		c0,34-20.4,53.6-41.8,53.6c-8.6,0-16.6-3.8-23.6-10.4L735.4,207.5z M751.2,178.1c10.2,0,18.4-8.8,18.4-29.2
		c0-17.8-5.4-26.8-17.2-26.8c-6,0-11.2,2.8-17,9v40.6C740.6,176.5,746.2,178.1,751.2,178.1z"/>
</g>
<g id="XMLID_29_">
	<path id="XMLID_30_" class="st0" d="M59.1,283.9h-5.5v-4.7l5.8-0.4l0.8-10.3h5.2v10.3h10v5.1h-10v20.5c0,4.6,1.4,7.1,5.7,7.1
		c1.3,0,3-0.5,4.2-1l1.2,4.7c-2.1,0.7-4.6,1.4-6.8,1.4c-7.9,0-10.6-5-10.6-12.3V283.9z"/>
	<path id="XMLID_32_" class="st0" d="M83.7,261.6H90v14.7l-0.2,7.6c3.5-3.3,7.2-6.1,12.3-6.1c7.8,0,11.2,5,11.2,14.4v23.4h-6.2
		v-22.6c0-6.9-2.1-9.9-7-9.9c-3.8,0-6.4,2-10.1,5.7v26.8h-6.2V261.6z"/>
	<path id="XMLID_34_" class="st0" d="M138.9,277.9c9.4,0,14.7,6.8,14.7,17.3c0,1.3-0.1,2.5-0.2,3.4h-24.9c0.5,8,5.2,13,12.3,13
		c3.5,0,6.5-1.1,9.2-2.9l2.2,4.1c-3.2,2.1-7.1,3.8-12.2,3.8c-9.9,0-17.7-7.2-17.7-19.3C122.4,285.2,130.5,277.9,138.9,277.9z
		 M148.2,294.5c0-7.5-3.3-11.7-9.1-11.7c-5.2,0-9.9,4.3-10.6,11.7H148.2z"/>
	<path id="XMLID_37_" class="st0" d="M177.1,307.4c3.2,2.6,6.5,4.4,10.9,4.4c4.9,0,7.3-2.6,7.3-5.8c0-3.8-4.4-5.5-8.4-7
		c-5.2-1.9-11-4.4-11-10.6c0-5.9,4.7-10.5,12.7-10.5c4.6,0,8.7,1.9,11.5,4.2l-3,4c-2.5-1.9-5.2-3.3-8.4-3.3c-4.6,0-6.8,2.5-6.8,5.3
		c0,3.4,4,4.8,8.2,6.4c5.3,2,11.2,4.2,11.2,11.2c0,6-4.8,11-13.5,11c-5.2,0-10.3-2.2-13.8-5.1L177.1,307.4z"/>
	<path id="XMLID_39_" class="st0" d="M210,278.8h5.2l0.5,5.3h0.2c3.2-3.5,7.1-6.2,11.5-6.2c5.6,0,8.7,2.7,10.2,7.1
		c3.9-4.2,7.7-7.1,12.2-7.1c7.6,0,11.2,5,11.2,14.4v23.4h-6.2v-22.6c0-6.9-2.2-9.9-6.8-9.9c-2.9,0-5.9,1.9-9.3,5.7v26.8h-6.2v-22.6
		c0-6.9-2.2-9.9-6.9-9.9c-2.7,0-5.9,1.9-9.3,5.7v26.8H210V278.8z"/>
	<path id="XMLID_41_" class="st0" d="M293.9,292.3c0-4.7-1.6-9.3-7.6-9.3c-4.3,0-8.1,2-11,4l-2.5-4.3c3.4-2.2,8.6-4.8,14.5-4.8
		c9,0,12.8,6,12.8,15.2v22.6h-5.2l-0.5-4.4h-0.2c-3.6,2.9-7.7,5.3-12.2,5.3c-6.2,0-10.9-3.9-10.9-10.5
		C271.2,298.1,278.2,294.1,293.9,292.3z M283.8,311.6c3.6,0,6.5-1.7,10.1-4.9v-10.3c-12.4,1.5-16.6,4.6-16.6,9.3
		C277.3,309.9,280.1,311.6,283.8,311.6z"/>
	<path id="XMLID_44_" class="st0" d="M311.9,278.8h5.2l0.5,6.7h0.2c2.5-4.6,6.3-7.6,10.5-7.6c1.6,0,2.7,0.2,4,0.8l-1.2,5.5
		c-1.2-0.4-2.1-0.6-3.6-0.6c-3.1,0-6.8,2.3-9.3,8.5v23.7h-6.2V278.8z"/>
	<path id="XMLID_46_" class="st0" d="M339.3,283.9h-5.5v-4.7l5.8-0.4l0.8-10.3h5.2v10.3h10v5.1h-10v20.5c0,4.6,1.4,7.1,5.7,7.1
		c1.3,0,3-0.5,4.2-1l1.2,4.7c-2.1,0.7-4.6,1.4-6.8,1.4c-7.9,0-10.6-5-10.6-12.3V283.9z"/>
	<path id="XMLID_48_" class="st0" d="M377,277.9c9.4,0,14.7,6.8,14.7,17.3c0,1.3-0.1,2.5-0.2,3.4h-24.9c0.5,8,5.2,13,12.3,13
		c3.5,0,6.5-1.1,9.2-2.9l2.2,4.1c-3.2,2.1-7.1,3.8-12.2,3.8c-9.9,0-17.7-7.2-17.7-19.3C360.5,285.2,368.6,277.9,377,277.9z
		 M386.3,294.5c0-7.5-3.3-11.7-9.1-11.7c-5.2,0-9.9,4.3-10.6,11.7H386.3z"/>
	<path id="XMLID_51_" class="st0" d="M399.9,307.4c3.2,2.6,6.5,4.4,10.9,4.4c4.9,0,7.3-2.6,7.3-5.8c0-3.8-4.4-5.5-8.4-7
		c-5.2-1.9-11-4.4-11-10.6c0-5.9,4.7-10.5,12.7-10.5c4.6,0,8.7,1.9,11.5,4.2l-3,4c-2.5-1.9-5.2-3.3-8.4-3.3c-4.6,0-6.8,2.5-6.8,5.3
		c0,3.4,4,4.8,8.2,6.4c5.3,2,11.2,4.2,11.2,11.2c0,6-4.8,11-13.5,11c-5.2,0-10.3-2.2-13.8-5.1L399.9,307.4z"/>
	<path id="XMLID_53_" class="st0" d="M433.8,283.9h-5.5v-4.7l5.8-0.4l0.8-10.3h5.2v10.3h10v5.1h-10v20.5c0,4.6,1.4,7.1,5.7,7.1
		c1.3,0,3-0.5,4.2-1l1.2,4.7c-2.1,0.7-4.6,1.4-6.8,1.4c-7.9,0-10.6-5-10.6-12.3V283.9z"/>
	<path id="XMLID_55_" class="st0" d="M473.8,261.6h6.2v36.6h0.2l15.7-19.5h6.9l-12.4,14.8l14.1,22.1h-6.8l-10.8-17.8l-6.9,8.1v9.7
		h-6.2V261.6z"/>
	<path id="XMLID_57_" class="st0" d="M523.9,277.9c9.4,0,14.7,6.8,14.7,17.3c0,1.3-0.1,2.5-0.2,3.4h-24.9c0.5,8,5.2,13,12.3,13
		c3.5,0,6.5-1.1,9.2-2.9l2.2,4.1c-3.2,2.1-7.1,3.8-12.2,3.8c-9.9,0-17.7-7.2-17.7-19.3C507.3,285.2,515.4,277.9,523.9,277.9z
		 M533.1,294.5c0-7.5-3.3-11.7-9.1-11.7c-5.2,0-9.9,4.3-10.6,11.7H533.1z"/>
	<path id="XMLID_60_" class="st0" d="M548.4,326.4c4.2,0,6.8-3.3,8.4-7.9l0.8-2.7l-14.8-37h6.5l7.5,20.4c1.1,3.2,2.4,7,3.6,10.4h0.3
		c1.1-3.3,2.1-7.1,3.1-10.4l6.6-20.4h6.1l-13.9,40c-2.6,7.3-6.4,12.8-13.8,12.8c-1.7,0-3.1-0.3-4.3-0.8l1.2-4.9
		C546.4,326.1,547.5,326.4,548.4,326.4z"/>
	<path id="XMLID_62_" class="st0" d="M598.9,261.6h6.2v14.7l-0.2,7.6c3.5-3.3,7.2-6.1,12.3-6.1c7.8,0,11.2,5,11.2,14.4v23.4h-6.2
		v-22.6c0-6.9-2.1-9.9-7-9.9c-3.8,0-6.4,2-10.1,5.7v26.8h-6.2V261.6z"/>
	<path id="XMLID_64_" class="st0" d="M654.7,277.9c9,0,17.1,7.1,17.1,19.5c0,12.2-8.1,19.3-17.1,19.3s-17.1-7.1-17.1-19.3
		C637.6,284.9,645.6,277.9,654.7,277.9z M654.7,311.5c6.4,0,10.6-5.7,10.6-14.1c0-8.5-4.3-14.3-10.6-14.3c-6.3,0-10.6,5.8-10.6,14.3
		C644,305.8,648.3,311.5,654.7,311.5z"/>
	<path id="XMLID_67_" class="st0" d="M681.5,261.6h6.2v47.1c0,2,0.8,2.7,1.7,2.7c0.4,0,0.7,0,1.4-0.2l0.8,4.7
		c-0.8,0.4-1.9,0.6-3.6,0.6c-4.7,0-6.6-3-6.6-8.4V261.6z"/>
	<path id="XMLID_69_" class="st0" d="M714.2,277.9c4.3,0,7.1,1.6,10.3,4.3l-0.3-6.3v-14.2h6.3v54.1h-5.2l-0.5-4.3h-0.2
		c-2.9,2.8-6.8,5.2-11.2,5.2c-9.3,0-15.3-7-15.3-19.3C698.2,285.3,705.8,277.9,714.2,277.9z M714.8,311.4c3.4,0,6.4-1.7,9.4-5.1V287
		c-3.1-2.8-5.9-3.9-9-3.9c-5.9,0-10.6,5.7-10.6,14.1C704.7,306.1,708.4,311.4,714.8,311.4z"/>
	<path id="XMLID_72_" class="st0" d="M756.9,277.9c9.4,0,14.7,6.8,14.7,17.3c0,1.3-0.1,2.5-0.2,3.4h-24.9c0.5,8,5.2,13,12.3,13
		c3.5,0,6.5-1.1,9.2-2.9l2.2,4.1c-3.2,2.1-7.1,3.8-12.2,3.8c-9.9,0-17.7-7.2-17.7-19.3C740.3,285.2,748.4,277.9,756.9,277.9z
		 M766.1,294.5c0-7.5-3.3-11.7-9.1-11.7c-5.2,0-9.9,4.3-10.6,11.7H766.1z"/>
	<path id="XMLID_75_" class="st0" d="M780.7,278.8h5.2l0.5,6.7h0.2c2.5-4.6,6.3-7.6,10.5-7.6c1.6,0,2.7,0.2,4,0.8l-1.2,5.5
		c-1.2-0.4-2.1-0.6-3.6-0.6c-3.1,0-6.8,2.3-9.3,8.5v23.7h-6.2V278.8z"/>
</g>
</svg>
